<svg width="24" height="24" viewBox="0 0 24 24" fill="none" xmlns="http://www.w3.org/2000/svg">
<mask id="path-1-inside-1_5811_5" fill="white">
<path d="M21.2913 4.61183C20.7805 4.10083 20.1741 3.69547 19.5066 3.41891C18.8392 3.14235 18.1238 3 17.4013 3C16.6788 3 15.9634 3.14235 15.2959 3.41891C14.6285 3.69547 14.022 4.10083 13.5113 4.61183L12.4513 5.67183L11.3913 4.61183C10.3596 3.58013 8.96032 3.00053 7.50129 3.00053C6.04226 3.00053 4.64298 3.58013 3.61129 4.61183C2.5796 5.64352 2 7.04279 2 8.50183C2 9.96086 2.5796 11.3601 3.61129 12.3918L4.67129 13.4518L12.4513 21.2318L20.2313 13.4518L21.2913 12.3918C21.8023 11.8811 22.2076 11.2746 22.4842 10.6072C22.7608 9.93972 22.9031 9.22431 22.9031 8.50183C22.9031 7.77934 22.7608 7.06393 22.4842 6.39647C22.2076 5.72901 21.8023 5.12258 21.2913 4.61183Z"/>
</mask>
<path d="M21.2913 4.61183L19.8767 6.02571L19.8774 6.02637L21.2913 4.61183ZM17.4013 3L17.4013 5L17.4013 3ZM13.5113 4.61183L14.9255 6.02604L14.9258 6.02571L13.5113 4.61183ZM12.4513 5.67183L11.0371 7.08604L12.4513 8.50025L13.8655 7.08604L12.4513 5.67183ZM11.3913 4.61183L9.97708 6.02604L9.97708 6.02604L11.3913 4.61183ZM3.61129 12.3918L2.19708 13.806L2.19708 13.806L3.61129 12.3918ZM4.67129 13.4518L3.25708 14.866L4.67129 13.4518ZM12.4513 21.2318L11.0371 22.646C11.8181 23.4271 13.0845 23.4271 13.8655 22.646L12.4513 21.2318ZM21.2913 12.3918L19.8774 10.9773L19.8771 10.9776L21.2913 12.3918ZM22.7058 3.19794C22.0094 2.50113 21.1824 1.94837 20.2722 1.57124L18.7411 5.26658C19.1658 5.44257 19.5517 5.70053 19.8767 6.02571L22.7058 3.19794ZM20.2722 1.57124C19.3621 1.19411 18.3865 1 17.4013 1L17.4013 5C17.8611 5 18.3163 5.09058 18.7411 5.26658L20.2722 1.57124ZM17.4013 1C16.4161 1 15.4405 1.19411 14.5304 1.57124L16.0615 5.26658C16.4863 5.09058 16.9415 5 17.4013 5V1ZM14.5304 1.57124C13.6202 1.94837 12.7932 2.50113 12.0967 3.19794L14.9258 6.02571C15.2509 5.70053 15.6368 5.44257 16.0615 5.26658L14.5304 1.57124ZM12.0971 3.19761L11.0371 4.25761L13.8655 7.08604L14.9255 6.02604L12.0971 3.19761ZM13.8655 4.25761L12.8055 3.19761L9.97708 6.02604L11.0371 7.08604L13.8655 4.25761ZM12.8055 3.19761C11.3987 1.79085 9.49076 1.00053 7.50129 1.00053L7.50129 5.00053C8.42989 5.00053 9.32046 5.36942 9.97708 6.02604L12.8055 3.19761ZM7.50129 1.00053C5.51182 1.00053 3.60384 1.79085 2.19708 3.19761L5.0255 6.02604C5.68212 5.36942 6.57269 5.00053 7.50129 5.00053L7.50129 1.00053ZM2.19708 3.19761C0.790312 4.60438 1.48227e-08 6.51236 0 8.50183L4 8.50183C4 7.57323 4.36888 6.68266 5.0255 6.02604L2.19708 3.19761ZM0 8.50183C-1.48227e-08 10.4913 0.790312 12.3993 2.19708 13.806L5.0255 10.9776C4.36889 10.321 4 9.43043 4 8.50183L0 8.50183ZM2.19708 13.806L3.25708 14.866L6.0855 12.0376L5.0255 10.9776L2.19708 13.806ZM3.25708 14.866L11.0371 22.646L13.8655 19.8176L6.0855 12.0376L3.25708 14.866ZM13.8655 22.646L21.6455 14.866L18.8171 12.0376L11.0371 19.8176L13.8655 22.646ZM21.6455 14.866L22.7055 13.806L19.8771 10.9776L18.8171 12.0376L21.6455 14.866ZM22.7052 13.8064C23.402 13.1099 23.9547 12.2829 24.3319 11.3728L20.6365 9.8416C20.4605 10.2663 20.2026 10.6523 19.8774 10.9773L22.7052 13.8064ZM24.3319 11.3728C24.709 10.4626 24.9031 9.48704 24.9031 8.50183H20.9031C20.9031 8.96159 20.8125 9.41685 20.6365 9.8416L24.3319 11.3728ZM24.9031 8.50183C24.9031 7.51661 24.709 6.54106 24.3319 5.63089L20.6365 7.16205C20.8125 7.5868 20.9031 8.04206 20.9031 8.50183H24.9031ZM24.3319 5.63089C23.9547 4.72072 23.402 3.89377 22.7052 3.19728L19.8774 6.02637C20.2026 6.3514 20.4605 6.73731 20.6365 7.16205L24.3319 5.63089Z" fill="#BA0707" mask="url(#path-1-inside-1_5811_5)"/>
</svg>
