<svg width="25" height="25" viewBox="0 0 25 25" fill="none" xmlns="http://www.w3.org/2000/svg">
<mask id="path-1-inside-1_5811_5" fill="white">
<path d="M21.7913 5.55959C21.2805 5.04859 20.6741 4.64323 20.0066 4.36667C19.3392 4.09011 18.6238 3.94776 17.9013 3.94776C17.1788 3.94776 16.4634 4.09011 15.7959 4.36667C15.1285 4.64323 14.522 5.04859 14.0113 5.55959L12.9513 6.61959L11.8913 5.55959C10.8596 4.5279 9.46032 3.9483 8.00129 3.9483C6.54226 3.9483 5.14298 4.5279 4.11129 5.55959C3.0796 6.59128 2.5 7.99055 2.5 9.44959C2.5 10.9086 3.0796 12.3079 4.11129 13.3396L5.17129 14.3996L12.9513 22.1796L20.7313 14.3996L21.7913 13.3396C22.3023 12.8288 22.7076 12.2224 22.9842 11.5549C23.2608 10.8875 23.4031 10.1721 23.4031 9.44959C23.4031 8.7271 23.2608 8.01169 22.9842 7.34423C22.7076 6.67677 22.3023 6.07034 21.7913 5.55959Z"/>
</mask>
<path d="M21.7913 5.55959C21.2805 5.04859 20.6741 4.64323 20.0066 4.36667C19.3392 4.09011 18.6238 3.94776 17.9013 3.94776C17.1788 3.94776 16.4634 4.09011 15.7959 4.36667C15.1285 4.64323 14.522 5.04859 14.0113 5.55959L12.9513 6.61959L11.8913 5.55959C10.8596 4.5279 9.46032 3.9483 8.00129 3.9483C6.54226 3.9483 5.14298 4.5279 4.11129 5.55959C3.0796 6.59128 2.5 7.99055 2.5 9.44959C2.5 10.9086 3.0796 12.3079 4.11129 13.3396L5.17129 14.3996L12.9513 22.1796L20.7313 14.3996L21.7913 13.3396C22.3023 12.8288 22.7076 12.2224 22.9842 11.5549C23.2608 10.8875 23.4031 10.1721 23.4031 9.44959C23.4031 8.7271 23.2608 8.01169 22.9842 7.34423C22.7076 6.67677 22.3023 6.07034 21.7913 5.55959Z" fill="#BA0707"/>
<path d="M21.7913 5.55959L20.3767 6.97347L20.3774 6.97413L21.7913 5.55959ZM17.9013 3.94776L17.9013 5.94776L17.9013 3.94776ZM14.0113 5.55959L15.4255 6.9738L15.4258 6.97347L14.0113 5.55959ZM12.9513 6.61959L11.5371 8.0338L12.9513 9.44801L14.3655 8.0338L12.9513 6.61959ZM11.8913 5.55959L10.4771 6.9738L10.4771 6.9738L11.8913 5.55959ZM4.11129 13.3396L2.69708 14.7538L2.69708 14.7538L4.11129 13.3396ZM5.17129 14.3996L3.75708 15.8138L5.17129 14.3996ZM12.9513 22.1796L11.5371 23.5938C12.3181 24.3748 13.5845 24.3748 14.3655 23.5938L12.9513 22.1796ZM21.7913 13.3396L20.3774 11.925L20.3771 11.9254L21.7913 13.3396ZM23.2058 4.14571C22.5094 3.44889 21.6824 2.89613 20.7722 2.519L19.2411 6.21434C19.6658 6.39033 20.0517 6.64829 20.3767 6.97347L23.2058 4.14571ZM20.7722 2.519C19.8621 2.14187 18.8865 1.94776 17.9013 1.94776L17.9013 5.94776C18.3611 5.94776 18.8163 6.03835 19.2411 6.21434L20.7722 2.519ZM17.9013 1.94776C16.9161 1.94776 15.9405 2.14187 15.0304 2.519L16.5615 6.21434C16.9863 6.03835 17.4415 5.94776 17.9013 5.94776V1.94776ZM15.0304 2.519C14.1202 2.89613 13.2932 3.44889 12.5967 4.14571L15.4258 6.97347C15.7509 6.64829 16.1368 6.39033 16.5615 6.21434L15.0304 2.519ZM12.5971 4.14537L11.5371 5.20537L14.3655 8.0338L15.4255 6.9738L12.5971 4.14537ZM14.3655 5.20537L13.3055 4.14537L10.4771 6.9738L11.5371 8.0338L14.3655 5.20537ZM13.3055 4.14537C11.8987 2.73861 9.99076 1.9483 8.00129 1.9483L8.00129 5.9483C8.92989 5.9483 9.82046 6.31718 10.4771 6.9738L13.3055 4.14537ZM8.00129 1.9483C6.01182 1.9483 4.10384 2.73861 2.69708 4.14537L5.5255 6.9738C6.18212 6.31718 7.07269 5.9483 8.00129 5.9483L8.00129 1.9483ZM2.69708 4.14537C1.29031 5.55214 0.5 7.46012 0.5 9.44959L4.5 9.44959C4.5 8.52099 4.86888 7.63042 5.5255 6.9738L2.69708 4.14537ZM0.5 9.44959C0.5 11.4391 1.29031 13.347 2.69708 14.7538L5.5255 11.9254C4.86889 11.2688 4.5 10.3782 4.5 9.44959L0.5 9.44959ZM2.69708 14.7538L3.75708 15.8138L6.5855 12.9854L5.5255 11.9254L2.69708 14.7538ZM3.75708 15.8138L11.5371 23.5938L14.3655 20.7654L6.5855 12.9854L3.75708 15.8138ZM14.3655 23.5938L22.1455 15.8138L19.3171 12.9854L11.5371 20.7654L14.3655 23.5938ZM22.1455 15.8138L23.2055 14.7538L20.3771 11.9254L19.3171 12.9854L22.1455 15.8138ZM23.2052 14.7541C23.902 14.0576 24.4547 13.2307 24.8319 12.3205L21.1365 10.7894C20.9605 11.2141 20.7026 11.6 20.3774 11.925L23.2052 14.7541ZM24.8319 12.3205C25.209 11.4104 25.4031 10.4348 25.4031 9.44959H21.4031C21.4031 9.90935 21.3125 10.3646 21.1365 10.7894L24.8319 12.3205ZM25.4031 9.44959C25.4031 8.46437 25.209 7.48882 24.8319 6.57865L21.1365 8.10982C21.3125 8.53456 21.4031 8.98982 21.4031 9.44959H25.4031ZM24.8319 6.57865C24.4547 5.66848 23.902 4.84153 23.2052 4.14504L20.3774 6.97413C20.7026 7.29916 20.9605 7.68507 21.1365 8.10982L24.8319 6.57865Z" fill="#BA0707" mask="url(#path-1-inside-1_5811_5)"/>
</svg>
